<svg viewBox="0 0 141.7 141.7" xmlns="http://www.w3.org/2000/svg"><path d="m2.1 84.1c.4 1.9 2.5 2.3 3.5 2.4l2.8.1c6-3.2 21-11.2 21.2-11.3 3.5-4.1.4-7.8-1.3-10.4l-2.1-2.9-21.7 12c-2.6 1.5-4.1 2.7-3.6 5.6z" fill="#008d95"/><path d="m5.7 86.5c-1.1-.1-3.1-.5-3.5-2.4l2.7 12c.8 2.9 2.6 3.3 5.6 3.5l28.3 1.6c3.1.3 7.9.2 8.9 5.5.4-2 1.4-7.4 1.4-7.4.2-1.2.2-2.5-.1-3.9-1-4.4-4.9-7.4-9.2-7.5z" fill="#00b5c8"/><path d="m138.8 91.7c.4-1.9-1.2-3.2-2.1-3.7l-2.5-1.3c-6.8.3-23.8 1-24 1-4.9 2.2-3.7 6.9-3.3 9.9l.6 3.5 24.8-1.4c3-.2 4.9-.6 5.6-3.5z" fill="#81c241"/><path d="m28.4 21.3c-2.8-1.1-4.6-1.6-6.6.7l-2.9 3.6c-1.2 1.5-.3 3.4.3 4.3l1.7 2.3c6.3 2.7 21.8 9.5 22.1 9.6 5.3.2 6.4-4.6 7.3-7.5l1-3.4z" fill="#2ab24b"/><path d="m84.4 6.9c-.9-2.9-1.7-4.6-4.7-4.7h-4.6c-1.9 0-2.8 1.9-3.1 2.9l-.7 2.7c1.8 6.6 6.2 23 6.3 23.2 3.2 4.3 7.5 2.1 10.4 1.1l3.3-1.4z" fill="#c3d82e"/><path d="m131.4 35.2-2.9-3.6c-1.2-1.5-3.2-1-4.2-.6l-2.6 1.1c-4 5.5-14.1 19.2-14.2 19.4-1.4 5.2 3 7.2 5.7 8.8l3.1 1.7 14.3-20.2c1.7-2.5 2.5-4.2.8-6.6z" fill="#f1d311"/><path d="m41.5 132.5 1.8-2.1c1.3-6.7 4.4-23.4 4.4-23.6-1-5.2-5.8-5.2-8.9-5.5l-3.6-.2-4.1 24.5c-.5 3-.5 4.9 2.2 6.3l4.1 2c1.7.7 3.3-.6 4.1-1.4z" fill="#008d95"/><path d="m72 5.2c.3-1 1.2-2.9 3.1-2.9h-12.3c-3 .1-3.8 1.8-4.7 4.7l-7.9 27.3c-1 2.9-2 7.6-7.3 7.5 1.9.8 6.9 3 6.9 3 1.1.5 2.4.8 3.9.8 4.5 0 8.3-3.1 9.3-7.3l9-33.1z" fill="#81c241"/><path d="m19.2 29.9c-.6-.9-1.5-2.8-.3-4.3l-7.7 9.7c-1.8 2.4-1 4.1.8 6.6l16.4 23.1c1.7 2.6 4.7 6.3 1.3 10.4 1.8-1 6.7-3.5 6.7-3.5 1.1-.6 2.1-1.4 3-2.5 2.8-3.5 2.7-8.4.1-11.8z" fill="#00b5c8"/><path d="m98.2 137.1c1.7-.8 1.7-2.9 1.6-4l-.5-2.8c-4.5-5.2-15.6-18-15.7-18.2-4.7-2.5-7.7 1.3-9.8 3.6l-2.4 2.7 16.5 18.5c2.1 2.2 3.5 3.4 6.2 2.2z" fill="#009448"/><path d="m99.8 133.2c.1 1.1.2 3.2-1.6 4l11.1-5.4c2.6-1.4 2.6-3.3 2.2-6.3l-4.7-28c-.4-3.1-1.5-7.8 3.4-9.9-2 .1-7.5.3-7.5.3-1.2.1-2.5.4-3.8 1-4.1 1.9-6.1 6.4-5.3 10.6z" fill="#2ab24b"/><path d="m41.5 132.5c-.7.8-2.4 2.1-4.1 1.3l11.1 5.4c2.7 1.2 4.2 0 6.2-2.2l18.9-21.1c2.1-2.2 5.1-6 9.8-3.6-1.3-1.5-4.9-5.7-4.9-5.7-.8-.9-1.8-1.7-3.1-2.4-4-1.9-8.8-.8-11.6 2.5z" fill="#00b5c8"/><path d="m136.6 88c.9.6 2.6 1.8 2.1 3.7l2.7-12c.6-2.9-.9-4.1-3.6-5.6l-24.7-13.8c-2.6-1.6-7-3.6-5.7-8.8-1.2 1.6-4.5 6.1-4.5 6.1-.7 1-1.3 2.2-1.6 3.6-1 4.4 1.2 8.8 5 10.7z" fill="#c3d82e"/><path d="m124.3 31c1-.4 3-.9 4.2.6l-7.7-9.7c-1.9-2.3-3.8-1.8-6.6-.7l-26.2 10.9c-2.9 1.1-7.2 3.2-10.4-1.1.5 1.9 2 7.3 2 7.3.3 1.2.9 2.4 1.8 3.5 2.8 3.5 7.6 4.5 11.5 2.8z" fill="#f5ea00"/></svg>